<?xml version="1.0" encoding="UTF-8" standalone="no"?>
<!-- (c) ammap.com | SVG map of Poland - Low-->

<svg
   xmlns:amcharts="http://amcharts.com/ammap"
   xmlns:dc="http://purl.org/dc/elements/1.1/"
   xmlns:cc="http://creativecommons.org/ns#"
   xmlns:rdf="http://www.w3.org/1999/02/22-rdf-syntax-ns#"
   xmlns:svg="http://www.w3.org/2000/svg"
   xmlns="http://www.w3.org/2000/svg"
   xmlns:sodipodi="http://sodipodi.sourceforge.net/DTD/sodipodi-0.dtd"
   xmlns:inkscape="http://www.inkscape.org/namespaces/inkscape"
   version="1.1"
   id="svg3051"
   inkscape:version="0.48.4 r9939"
   width="640"
   height="640"
   sodipodi:docname="poland.svg">
  <metadata
     id="metadata3077">
    <rdf:RDF>
      <cc:Work
         rdf:about="">
        <dc:format>image/svg+xml</dc:format>
        <dc:type
           rdf:resource="http://purl.org/dc/dcmitype/StillImage" />
      </cc:Work>
    </rdf:RDF>
  </metadata>
  <sodipodi:namedview
     pagecolor="#ffffff"
     bordercolor="#666666"
     borderopacity="1"
     objecttolerance="10"
     gridtolerance="10"
     guidetolerance="10"
     inkscape:pageopacity="0"
     inkscape:pageshadow="2"
     inkscape:window-width="1280"
     inkscape:window-height="734"
     id="namedview3075"
     showgrid="false"
     fit-margin-top="0"
     fit-margin-left="0"
     fit-margin-right="0"
     fit-margin-bottom="0"
     inkscape:zoom="0.63429569"
     inkscape:cx="348.51238"
     inkscape:cy="364.54351"
     inkscape:window-x="0"
     inkscape:window-y="27"
     inkscape:window-maximized="1"
     inkscape:current-layer="g3057" />
  <defs
     id="defs3053">
    <style
       type="text/css"
       id="style3055">
			.land
			{
				fill: #CCCCCC;
				fill-opacity: 1;
				stroke:white;
				stroke-opacity: 1;
				stroke-width:0.5;
			}
		</style>
    <amcharts:ammap
       projection="mercator"
       leftLongitude="14.122232"
       topLatitude="54.834793"
       rightLongitude="24.149724"
       bottomLatitude="49.002699" />
    <!-- All areas are listed in the line below. You can use this list in your script. -->
    <!--{id:"PL-DS"},{id:"PL-KP"},{id:"PL-LD"},{id:"PL-LU"},{id:"PL-LB"},{id:"PL-MA"},{id:"PL-MZ"},{id:"PL-OP"},{id:"PL-PK"},{id:"PL-PD"},{id:"PL-PM"},{id:"PL-SL"},{id:"PL-SK"},{id:"PL-WN"},{id:"PL-WP"},{id:"PL-ZP"}-->
    <filter
       inkscape:collect="always"
       id="filter5399">
      <feGaussianBlur
         inkscape:collect="always"
         stdDeviation="5.9735484"
         id="feGaussianBlur5401" />
    </filter>
    <filter
       inkscape:collect="always"
       id="filter5403">
      <feGaussianBlur
         inkscape:collect="always"
         stdDeviation="5.9735484"
         id="feGaussianBlur5405" />
    </filter>
    <filter
       inkscape:collect="always"
       id="filter5407"
       x="-0.063305826"
       width="1.1266117"
       y="-0.10482857"
       height="1.2096571">
      <feGaussianBlur
         inkscape:collect="always"
         stdDeviation="5.9735484"
         id="feGaussianBlur5409" />
    </filter>
    <filter
       inkscape:collect="always"
       id="filter5411"
       x="-0.10623934"
       width="1.2124787"
       y="-0.12507778"
       height="1.2501556">
      <feGaussianBlur
         inkscape:collect="always"
         stdDeviation="5.9735484"
         id="feGaussianBlur5413" />
    </filter>
    <filter
       inkscape:collect="always"
       id="filter5415"
       x="-0.11818992"
       width="1.2363798"
       y="-0.086631243"
       height="1.1732625">
      <feGaussianBlur
         inkscape:collect="always"
         stdDeviation="5.9735484"
         id="feGaussianBlur5417" />
    </filter>
    <filter
       inkscape:collect="always"
       id="filter5419"
       x="-0.078726675"
       width="1.1574534"
       y="-0.10041351"
       height="1.200827">
      <feGaussianBlur
         inkscape:collect="always"
         stdDeviation="5.9735484"
         id="feGaussianBlur5421" />
    </filter>
    <filter
       inkscape:collect="always"
       id="filter5423">
      <feGaussianBlur
         inkscape:collect="always"
         stdDeviation="5.9735484"
         id="feGaussianBlur5425" />
    </filter>
    <filter
       inkscape:collect="always"
       id="filter5427">
      <feGaussianBlur
         inkscape:collect="always"
         stdDeviation="5.9735484"
         id="feGaussianBlur5429" />
    </filter>
    <filter
       inkscape:collect="always"
       id="filter5431"
       x="-0.12811877"
       width="1.2562375"
       y="-0.11954002"
       height="1.23908">
      <feGaussianBlur
         inkscape:collect="always"
         stdDeviation="5.9735484"
         id="feGaussianBlur5433" />
    </filter>
    <filter
       inkscape:collect="always"
       id="filter5435">
      <feGaussianBlur
         inkscape:collect="always"
         stdDeviation="5.9735484"
         id="feGaussianBlur5437" />
    </filter>
    <filter
       inkscape:collect="always"
       id="filter5439"
       x="-0.098448334"
       width="1.1968967"
       y="-0.11072589"
       height="1.2214518">
      <feGaussianBlur
         inkscape:collect="always"
         stdDeviation="5.9735484"
         id="feGaussianBlur5441" />
    </filter>
    <filter
       inkscape:collect="always"
       id="filter5443"
       x="-0.12131676"
       width="1.2426335"
       y="-0.080581446"
       height="1.1611629">
      <feGaussianBlur
         inkscape:collect="always"
         stdDeviation="5.9735484"
         id="feGaussianBlur5445" />
    </filter>
    <filter
       inkscape:collect="always"
       id="filter5447">
      <feGaussianBlur
         inkscape:collect="always"
         stdDeviation="5.9735484"
         id="feGaussianBlur5449" />
    </filter>
    <filter
       inkscape:collect="always"
       id="filter5451">
      <feGaussianBlur
         inkscape:collect="always"
         stdDeviation="5.9735484"
         id="feGaussianBlur5453" />
    </filter>
    <filter
       inkscape:collect="always"
       id="filter5455">
      <feGaussianBlur
         inkscape:collect="always"
         stdDeviation="5.9735484"
         id="feGaussianBlur5457" />
    </filter>
    <filter
       inkscape:collect="always"
       id="filter5459">
      <feGaussianBlur
         inkscape:collect="always"
         stdDeviation="5.9735484"
         id="feGaussianBlur5461" />
    </filter>
  </defs>
  <g
     id="g3057"
     transform="translate(14.005,31.645)">
    <path
       style="fill:#cccccc;fill-opacity:1;stroke:#ffffff;stroke-width:3;stroke-linejoin:round;stroke-miterlimit:4;stroke-opacity:1;stroke-dasharray:none"
       d="M 267.6875 29.65625 L 247.75 30.15625 C 233.0846 33.946828 217.94664 36.669241 203.59375 41.25 C 193.43265 47.250256 184.66384 56.364953 172.46875 57.8125 C 172.4495 57.836827 172.42484 57.850609 172.40625 57.875 C 166.21012 59.829356 158.43564 59.587244 155.28125 66.375 C 146.9297 76.386994 139.03831 89.415881 124.96875 91.1875 C 103.5426 96.887333 81.882418 101.91004 61.40625 110.59375 C 53.301588 112.76128 47.574401 117.49874 39.625 119.6875 C 33.997354 120.76323 30.800968 127.52526 24.53125 125.0625 C 18.99854 123.58647 13.010408 127.70709 17.59375 133.34375 C 20.532932 135.71463 24.123067 140.91477 28.03125 140.4375 C 30.161305 135.22558 35.570677 133.12321 39.78125 137.03125 C 43.118158 141.97869 36.626854 144.18209 37.59375 150.3125 C 36.153017 153.49738 27.887979 146.99639 25.25 144 C 18.671649 143.59583 23.788582 154.28965 22.78125 158.59375 C 22.999454 171.00575 28.756935 182.43206 31.59375 194.375 C 26.156711 199.94957 26.889547 207.87044 25.65625 215 C 22.064875 219.04136 14.089941 220.8728 13.46875 226.53125 C 17.059755 231.63551 7.8059745 239.20074 16.125 240.65625 C 25.497303 245.93006 32.571415 254.97188 41.03125 261.75 C 41.13863 261.79115 41.240804 261.8104 41.34375 261.84375 C 41.545397 266.78604 45.06413 272.06344 40.53125 276.0625 C 34.599797 281.47254 39.280485 288.4928 40.75 294.78125 C 47.6529 297.50346 48.707963 301.89601 46.21875 308.90625 C 49.684526 314.06628 51.460208 318.81874 48.28125 325.3125 C 48.727868 331.59892 40.984156 334.59302 40.90625 340.1875 C 43.842127 345.65136 48.729852 350.65787 50.53125 356.375 C 50.53785 361.50384 45.985372 369.87404 53.90625 371 C 60.817836 372.60345 64.701874 376.48886 63.9375 383.84375 C 64.084348 384.04346 64.222521 384.21975 64.375 384.375 C 64.331828 384.72031 64.344353 385.09195 64.375 385.46875 C 66.822134 391.35431 68.883835 397.24401 65.9375 403.375 C 64.733717 413.74135 58.364187 422.37725 54.96875 431.875 C 57.440202 435.03814 66.689267 435.13808 69.625 432.375 C 72.650863 427.99078 67.317543 417.83533 71.625 419.8125 C 74.388387 425.38164 83.208429 418.32303 82.375 425.25 C 80.037683 432.37283 89.995621 434.06055 88.375 440.90625 C 92.31209 443.26652 98.448263 438.74569 103.8125 443.9375 C 107.97571 449.39521 116.7067 441.84253 117.40625 449.03125 C 117.1036 456.26985 131.06641 448.3495 126.0625 455.75 C 127.32961 464.78456 134.39565 454.43572 136.96875 455.5 C 141.75353 460.23016 145.89644 447.67523 150.21875 456 C 156.86382 461.524 148.02985 464.92712 144.125 467.4375 C 138.02714 470.92459 137.63531 476.4624 143.4375 480.53125 C 148.79682 481.11603 149.13788 484.17696 154.0625 486.25 C 157.87742 490.89538 162.16142 495.3242 162.1875 501.71875 C 165.64625 505.80734 172.55924 510.34647 175.65625 503.21875 C 178.75754 499.96854 184.47614 492.11399 188.625 495.9375 C 194.94075 497.34225 193.46808 488.3338 191.1875 485.0625 C 188.16177 483.60813 184.79402 478.23864 185.25 475 C 188.53276 476.69277 194.04955 476.7565 196.90625 478.65625 C 202.52408 479.04742 204.79227 487.38988 209.09375 487.1875 C 208.5756 492.74023 216.32972 493.50052 220.09375 491.09375 C 225.75546 495.81769 232.0973 483.93124 232.5625 489.5625 C 237.50427 497.22474 223.51243 494.72719 224.125 500.90625 C 226.30872 507.13413 233.91061 505.2875 234.5 512.28125 C 237.03673 516.9882 243.18099 522.15596 248.0625 517 C 251.10381 516.68439 253.34281 516.09393 254.53125 514.6875 C 255.33229 515.56379 256.19774 516.37586 257.0625 517.09375 C 263.94907 514.55039 265.54025 524.43561 271.03125 524.5625 C 273.58143 519.47339 279.51837 529.10635 284.03125 525 C 285.64451 530.89708 285.00691 537.82004 288.125 543.03125 C 294.54637 544.81667 300.4449 547.01268 299.125 554.84375 C 296.32037 563.78596 308.47339 560.34449 308.28125 566.3125 C 306.06914 574.86703 313.84459 574.34375 319.71875 572.78125 C 326.96605 574.0121 326.88441 565.58937 329.21875 560.96875 C 334.51774 561.92558 337.83588 557.85612 340.75 554.03125 C 340.87456 554.36829 340.98485 554.70017 341.09375 555.0625 C 344.45875 559.10252 344.21162 567.59297 348.5625 569.15625 C 347.44496 576.83647 359.93798 571.19036 359.0625 576.4375 C 362.77882 582.32004 353.07484 586.26052 358.8125 591.5 C 364.23518 595.90231 368.72472 586.45952 373.0625 591.3125 C 379.236 597.85875 381.5289 589.12188 382.53125 583.9375 C 382.308 575.37895 392.34284 580.95185 394.28125 576.03125 C 394.97413 568.83067 404.12694 573.20527 407.9375 575.40625 C 411.08887 570.97197 418.37087 569.69165 419.5625 577.1875 C 424.22484 577.0601 427.0763 583.65919 431.59375 582.0625 C 434.67844 578.67163 445.72564 576.2033 440.375 570.5625 C 445.84395 575.78223 449.11037 569.68308 453.28125 568.75 C 454.88532 570.06823 456.31828 570.41113 457.53125 570.09375 C 459.87395 572.16377 464.64358 572.54303 467.21875 570.75 C 473.54937 566.1065 476.53657 575.39189 481.65625 577.46875 C 485.46346 573.19589 491.92594 576.37439 493.03125 582.25 C 494.18457 589.16027 499.5944 591.93906 506 592.84375 C 506.83734 599.38998 516.74263 594.00549 518.875 600.21875 C 523.7626 603.12289 531.14999 599.18674 534.46875 605.65625 C 540.24437 605.11702 543.57514 609.36111 549.03125 609.96875 C 553.00944 607.74732 552.69858 598.08453 547.84375 596.3125 C 541.44416 594.79987 543.66194 589.72533 540.8125 586.25 C 542.61207 579.00584 542.86447 571.7811 540.15625 564.71875 C 536.12843 559.20451 537.82372 555.81785 542.5625 550.78125 C 553.82705 535.68671 564.19136 519.75464 576.03125 505.1875 C 580.47414 500.83881 586.10007 497.38954 590.03125 492.65625 C 591.14612 492.6757 592.3422 491.70625 593.84375 488.78125 C 597.89004 484.06243 601.19162 477.97839 608.34375 478.9375 C 614.31288 478.8505 621.59509 477.42777 621.6875 470 C 623.19731 461.60844 627.11927 452.45841 622.5 444.4375 C 620.6313 442.0953 613.53205 437.47962 621.40625 436.21875 C 629.64578 434.94272 628.34144 428.63531 621.5625 426.0625 C 613.64933 423.28986 616.91657 412.70271 610.53125 408.6875 C 614.0914 400.75797 601.81816 400.43259 601.5625 393.4375 C 597.76782 388.55304 598.419 385.16025 600.78125 378.9375 C 597.48373 374.74702 599.32332 368.90707 592.78125 366.4375 C 591.1306 361.02638 591.23082 354.61112 590.25 348.8125 C 596.62446 344.70955 596.92461 339.90825 595.09375 333.75 C 593.54182 327.1941 602.31463 324.15728 598.84375 317.84375 C 598.80375 311.57048 593.43874 307.6739 588.78125 306.75 C 589.37048 300.25291 583.03193 302.92494 579.4375 299.34375 C 573.62922 299.85286 571.24032 296.74956 568.625 293.78125 C 570.61837 291.9952 572.18881 289.02975 573.5 286.84375 C 578.47859 280.4465 581.76054 272.14097 587.84375 266.96875 C 592.3988 262.52488 598.88295 264.30858 603.5625 261.21875 C 607.90539 256.30294 617.39619 253.35775 614.84375 245.28125 C 615.00375 238.46065 612.53189 230.9685 615.5 224.9375 C 613.84827 219.17289 609.22409 213.41191 613.25 207.625 C 614.45281 200.77424 606.02751 196.02873 605.375 189.125 C 599.0821 166.80124 590.51159 145.00656 587.78125 121.84375 C 587.53492 116.18188 592.13035 110.87547 588.1875 105.09375 C 586.2668 99.418097 580.94354 95.140885 576.78125 91.0625 C 569.98902 93.20744 567.96773 81.794697 562 85.40625 C 560.69424 83.185759 558.90937 77.457307 554.21875 76.4375 C 551.6963 75.981549 549.2673 74.164538 546.65625 74.84375 C 544.29721 75.566822 543.1605 77.219891 542.40625 79.09375 C 541.32567 78.696284 539.856 78.769329 537.90625 79.53125 C 511.62105 80.935685 485.32692 83.371835 459.0625 84.125 C 426.51106 80.163851 393.98326 75.157549 361.40625 71.84375 L 357.3125 72.09375 C 353.14372 76.441278 351.13619 82.783742 343.84375 83.0625 C 338.82509 85.083519 337.38333 89.638425 331.96875 89.1875 C 330.60711 88.762023 329.56501 88.545564 328.78125 88.5 C 328.1105 85.023392 332.26715 83.450432 337.375 82.90625 C 342.60171 79.446165 348.91454 77.011089 353.28125 72.59375 C 350.46549 66.930056 343.27542 75.569455 338.8125 76.34375 C 330.26266 79.511596 320.47886 81.574943 311.53125 80.625 C 306.78178 77.92851 301.57497 82.270005 296.3125 78.03125 C 298.10453 72.332327 285.59198 76.310712 287.0625 69.03125 C 286.95808 63.477838 287.3804 58.837568 284.78125 53.5 C 281.29795 49.912579 280.98604 44.931291 277.3125 41.1875 C 280.58884 39.445081 287.46427 46.986478 292.125 48.8125 C 295.20338 51.370594 297.49157 62.128248 302.09375 57.71875 C 304.97867 50.932259 296.08625 47.971372 292.625 43.5625 C 284.22294 39.228873 276.53165 32.593858 267.6875 29.65625 z M 52.53125 119.71875 C 52.703028 119.68141 52.791799 119.78335 52.46875 120.1875 C 51.72442 120.21677 52.244953 119.78098 52.53125 119.71875 z "
       transform="translate(-14.005,-31.645)"
       id="PL-DS" />
  </g>
</svg>
