<?xml version="1.0" encoding="UTF-8" standalone="no"?>
<!-- Created with Inkscape (http://www.inkscape.org/) -->

<svg
   xmlns:dc="http://purl.org/dc/elements/1.1/"
   xmlns:cc="http://creativecommons.org/ns#"
   xmlns:rdf="http://www.w3.org/1999/02/22-rdf-syntax-ns#"
   xmlns:svg="http://www.w3.org/2000/svg"
   xmlns="http://www.w3.org/2000/svg"
   xmlns:sodipodi="http://sodipodi.sourceforge.net/DTD/sodipodi-0.dtd"
   xmlns:inkscape="http://www.inkscape.org/namespaces/inkscape"
   inkscape:version="0.48.4 r9939"
   version="1.1"
   id="svg3148"
   height="860"
   width="2000"
   sodipodi:docname="Responsa.eu logo - negative.svg"
   inkscape:export-filename="/home/tadeusz/Documents/Radzimy/Materiały promocyjne/Responsa.eu logo.png"
   inkscape:export-xdpi="89.999992"
   inkscape:export-ydpi="89.999992">
  <sodipodi:namedview
     id="base"
     pagecolor="#b0b0b0"
     bordercolor="#666666"
     borderopacity="1.0"
     inkscape:pageopacity="1"
     inkscape:pageshadow="2"
     inkscape:zoom="0.3535534"
     inkscape:cx="985.83628"
     inkscape:cy="256.85236"
     inkscape:document-units="px"
     inkscape:current-layer="layer1"
     showgrid="false"
     showborder="true"
     inkscape:window-width="1280"
     inkscape:window-height="734"
     inkscape:window-x="0"
     inkscape:window-y="27"
     inkscape:window-maximized="1"
     showguides="true"
     inkscape:guide-bbox="true"
     fit-margin-top="0"
     fit-margin-left="0"
     fit-margin-right="0"
     fit-margin-bottom="0" />
  <defs
     id="defs3150">
    <filter
       inkscape:collect="always"
       id="filter4116"
       color-interpolation-filters="sRGB">
      <feGaussianBlur
         inkscape:collect="always"
         stdDeviation="19.939294"
         id="feGaussianBlur4118" />
    </filter>
  </defs>
  <metadata
     id="metadata3153">
    <rdf:RDF>
      <cc:Work
         rdf:about="">
        <dc:format>image/svg+xml</dc:format>
        <dc:type
           rdf:resource="http://purl.org/dc/dcmitype/StillImage" />
        <dc:title></dc:title>
      </cc:Work>
    </rdf:RDF>
  </metadata>
  <g
     id="layer1"
     inkscape:groupmode="layer"
     inkscape:label="Layer 1"
     transform="translate(-1.3140268e-8,-192.36222)">
    <path
       style="font-size:medium;font-style:normal;font-variant:normal;font-weight:normal;font-stretch:normal;text-indent:0;text-align:start;text-decoration:none;line-height:normal;letter-spacing:normal;word-spacing:normal;text-transform:none;direction:ltr;block-progression:tb;writing-mode:lr-tb;text-anchor:start;baseline-shift:baseline;opacity:0.6;color:#000000;fill:#000000;fill-opacity:1;stroke:none;stroke-width:30;marker:none;visibility:visible;display:inline;overflow:visible;filter:url(#filter4116);enable-background:accumulate;font-family:Sans;-inkscape-font-specification:Sans"
       d="m 476.28125,272.36216 c -1.45636,0.004 -2.91818,0.009 -4.375,0.0312 -88.93703,-0.18372 -176.4468,33.91156 -243.875,91.40625 8.64762,-2.29152 17.76628,-3.06344 26.5625,-2.375 2.32535,1.32552 1.99085,-1.01561 2.625,-2.5625 14.7786,-25.93104 45.51361,-38.64561 74.5,-38.15625 6.90109,-0.18589 13.9501,0.36355 20.875,1.625 38.75309,-14.47128 80.02064,-22.16556 121.5,-22 122.3883,-1.0634 242.65152,67.74549 303.28125,174.25 52.31893,89.17561 62.9773,202.65499 26.1875,299.75 -4.64706,12.61829 -10.02619,24.95261 -16.09375,36.9375 l 24.15625,14.03125 c 33.14424,-64.92854 47.78691,-139.39403 39.625,-212.25 C 841.73735,520.046 796.7746,430.61536 726.8125,369.01836 658.66253,307.92858 568.03137,272.11694 476.28125,272.36211 z m -144.0625,58.28125 c -34.7543,0 -61.16518,16.31297 -69.4375,40.875 l -18.875,0 c -29.43457,0 -53.5,24.13553 -53.5,53.65625 l 0,167.96875 -113.5625,65.75 c -2.323803,1.35567 -4.194234,3.47601 -5.21875,5.96875 -1.024525,2.49275 -1.196297,5.33329 -0.5,7.9375 1.392594,5.20842 6.529582,9.17213 11.90625,9.1875 l 108.1875,0 c 4.34045,25.22788 26.34276,44.59375 52.6875,44.59375 l 152.3125,0 0,-24.78125 -152.3125,0 c -16.17803,0 -28.8125,-12.68087 -28.8125,-28.90625 l 0,-3.28125 c -3.3e-4,-3.24259 -1.33883,-6.48839 -3.625,-8.78125 -2.28617,-2.29285 -5.48562,-3.62468 -8.71875,-3.625 l -73.625,0 79.78125,-46.21875 c 3.73552,-2.16329 6.19002,-6.39258 6.1875,-10.71875 l 0,-175.09375 c 0,-16.22539 12.63447,-28.90625 28.8125,-28.90625 l 16.9375,0 c 2.77159,13.49112 12.66325,22.65625 25.3125,22.65625 14.58961,0 24.1875,-10.40563 24.1875,-25.65625 0,-8.02665 -1.91058,-12.84343 -8.4375,-20.46875 -4.60724,-5.21731 -5.78125,-7.64293 -5.78125,-11.65625 0,-9.63197 9.61578,-16.0625 23.4375,-16.0625 20.34865,0 32.21875,19.27826 32.21875,52.1875 0,20.86927 -3.79882,34.92989 -16.46875,59.8125 C 326.09802,475.5422 323,484.74985 323,495.98716 c 0,4.41465 0.0134,6.42878 0.78125,18.46875 l 11.53125,0 c 0,-29.29725 3.03074,-34.91055 27.21875,-50.5625 C 397.46951,441.4188 409,424.96033 409,397.26841 c 0,-0.33101 0.004,-0.67085 0,-1 l 81.90625,0 c 16.17804,0 28.8125,12.68086 28.8125,28.90625 l 0,247.71875 c 0,16.22538 -12.63446,28.90625 -28.8125,28.90625 l -53.5,0 0,24.78125 53.5,0 c 29.43457,0 53.53125,-24.16678 53.53125,-53.6875 l 0,-247.71875 c 0,-29.52072 -24.09668,-53.65625 -53.53125,-53.65625 l -86.71875,0 c -10.3625,-25.32086 -36.6701,-40.875 -71.96875,-40.875 z m -149.6875,79.25 c -12.37072,14.94372 -23.55842,30.86686 -33.375,47.6875 -32.27557,53.86577 -50.487442,116.06002 -53.25,178.84375 9.63226,-5.75993 19.35177,-11.42035 29.09375,-17 1.12848,-11.93393 2.87994,-23.80064 5.28125,-35.5625 8.5919,-44.04296 25.85598,-86.31336 50.21875,-123.90625 l 0,-17.65625 c -0.99162,-10.72134 -0.59006,-21.90468 2.03125,-32.40625 z m 814.5,110.78125 c -8.44733,1.4e-4 -22.77776,0.23817 -43,0.75 l -1.34375,1.15625 0,130.1875 c 3.07172,0.63994 7.04264,0.9375 11.90625,0.9375 4.99154,0 9.08148,-0.29756 12.28125,-0.9375 l 0,-50.875 12.65625,0 c 5.24749,4e-5 9.15891,1.19326 11.71875,3.625 2.6877,2.43184 4.8673,5.95493 6.5312,10.5625 l 8.625,23.625 c 1.7918,5.24755 3.7334,9.0087 5.7813,11.3125 2.1758,2.17581 5.37,3.28125 9.5937,3.28125 7.4234,0 12.9162,-2.50842 16.5,-7.5 -3.5837,-2.68776 -6.5995,-7.28505 -9.0312,-13.8125 l -7.4688,-20.15625 c -3.0717,-8.95919 -7.7598,-14.54289 -14.0312,-16.71875 6.7833,-2.43173 12.486,-6.70021 17.0938,-12.84375 4.7354,-6.2714 7.0936,-13.7059 7.0937,-22.28125 -10e-5,-13.05479 -4.0901,-23.02597 -12.2813,-29.9375 -8.0633,-6.91128 -18.9302,-10.37486 -32.62495,-10.375 z m -20.15625,18.8125 c 4.0956,0.12819 10.30566,0.18761 18.625,0.1875 14.2067,1.1e-4 21.3124,7.10581 21.3125,21.3125 -10e-5,14.20687 -7.1058,21.31257 -21.3125,21.3125 -3.19978,7e-5 -9.40984,0.11909 -18.625,0.375 l 0,-43.1875 z m -646.96875,5.0625 c -17.6611,0 -32.625,15.6588 -32.625,33.71875 0,19.26395 14.19603,34.125 32.625,34.125 18.04504,0 32.25,-14.85613 32.25,-33.71875 0,-18.46129 -14.5889,-34.125 -32.25,-34.125 z m 770.37495,10.28125 c -12.7989,10e-5 -22.6511,4.68814 -29.5624,14.03125 -6.9115,9.34328 -10.375,21.43457 -10.375,36.28125 0,14.84677 3.1347,26.93807 9.4062,36.28125 6.2715,9.34321 16.6027,14.03125 30.9375,14.03125 14.4627,0 26.7921,-3.67337 37.0313,-10.96875 -1.024,-6.27146 -3.3227,-11.10678 -6.9063,-14.5625 -9.2153,4.47964 -17.6049,6.71876 -25.1563,6.71875 -7.5513,10e-6 -12.8658,-2.06058 -15.9374,-6.15625 -2.9439,-4.22362 -4.5848,-10.10486 -4.9688,-17.65625 l 53.75,0 c 1.2798,-5.50349 1.9062,-11.20619 1.9062,-17.09375 -10e-5,-11.77492 -3.4324,-21.50808 -10.3437,-29.1875 -6.9115,-7.80724 -16.8544,-11.71865 -29.7813,-11.71875 z m 92.4376,0 c -10.7512,10e-5 -19.3789,2.77781 -25.9063,8.28125 -6.5275,5.37562 -9.8125,12.54083 -9.8125,21.5 0,12.54299 8.0608,21.79706 24.1875,27.8125 l 10.75,4.03125 c 7.1673,2.6878 10.7812,6.5397 10.7813,11.53125 -1e-4,2.94377 -1.3749,5.30193 -4.0626,7.09375 -2.5597,1.79187 -6.1423,2.68751 -10.75,2.6875 -7.6793,10e-6 -16.6358,-2.74645 -26.875,-8.25 -1.9199,1.79187 -3.5608,4.3598 -4.9687,7.6875 -1.4079,3.19974 -2.1845,6.06523 -2.3125,8.625 11.135,6.39946 22.7189,9.625 34.75,9.625 12.1589,0 21.6228,-2.68695 28.4062,-8.0625 6.9114,-5.37553 10.375,-12.63151 10.375,-21.71875 0,-13.56681 -8.2707,-23.41897 -24.7812,-29.5625 l -11.6875,-4.40625 c -6.7835,-2.43173 -10.1875,-5.68554 -10.1875,-9.78125 0,-2.81569 1.0146,-5.05482 3.0625,-6.71875 2.1757,-1.66378 5.0726,-2.49991 8.6563,-2.5 7.8073,9e-5 16.435,2.1797 25.9062,6.53125 2.0478,-1.66378 3.72,-4.1722 5,-7.5 1.4078,-3.32763 2.0342,-6.46242 1.9062,-9.40625 -10.751,-4.99148 -21.5585,-7.4999 -32.4374,-7.5 z m 102.6874,0 c -10.3671,10e-5 -19.2642,3.73298 -26.6874,11.15625 -2.432,-6.27137 -6.9696,-9.40616 -13.625,-9.40625 l -6.7188,0 -1.3438,1.15625 0,135.15625 1.3438,1.34375 9,0 c 4.8636,-3e-5 8.2676,-1.16499 10.1875,-3.46875 1.9198,-2.17585 2.875,-5.93699 2.875,-11.3125 l 0,-30.34375 c 6.9114,3.5837 13.6882,5.375 20.3437,5.375 10.3671,0 19.2046,-4.41876 26.5,-13.25 7.2952,-8.83123 10.9375,-20.98203 10.9376,-36.46875 -2e-4,-15.48662 -2.8656,-27.66867 -8.625,-36.5 -5.7596,-8.95915 -13.8206,-13.4374 -24.1876,-13.4375 z m 90.5313,0 c -11.9031,10e-5 -21.4859,3.67346 -28.7813,10.96875 -9.0872,9.08731 -13.6563,22.19327 -13.6562,39.34375 -10e-5,17.15058 4.569,30.25654 13.6562,39.34375 7.2955,7.29538 16.8782,10.96875 28.7813,10.96875 12.0308,0 21.7046,-3.67337 29,-10.96875 9.0871,-9.08721 13.6249,-22.19317 13.625,-39.34375 -10e-5,-17.15048 -4.5379,-30.25644 -13.625,-39.34375 -7.2954,-7.29529 -16.9692,-10.96865 -29,-10.96875 z m 199.6875,0 c -10.7511,10e-5 -19.3788,2.77781 -25.9062,8.28125 -6.5274,5.37562 -9.7813,12.54083 -9.7813,21.5 0,12.54299 8.0609,21.79706 24.1875,27.8125 l 10.75,4.03125 c 7.1673,2.6878 10.75,6.5397 10.75,11.53125 0,2.94377 -1.3436,5.30193 -4.0312,7.09375 -2.5599,1.79187 -6.1425,2.68751 -10.75,2.6875 -7.6795,10e-6 -16.6359,-2.74645 -26.875,-8.25 -1.92,1.79187 -3.5923,4.3598 -5,7.6875 -1.4081,3.19974 -2.1846,6.06523 -2.3126,8.625 11.1352,6.39946 22.7191,9.625 34.75,9.625 12.159,0 21.6228,-2.68695 28.4063,-8.0625 6.9113,-5.37553 10.3749,-12.63151 10.375,-21.71875 -10e-5,-13.56681 -8.2395,-23.41897 -24.75,-29.5625 l -11.7187,-4.40625 c -6.7836,-2.43173 -10.1876,-5.68554 -10.1876,-9.78125 1e-4,-2.81569 1.0459,-5.05482 3.0938,-6.71875 2.1758,-1.66378 5.0413,-2.49991 8.625,-2.5 7.8074,9e-5 16.435,2.1797 25.9062,6.53125 2.0478,-1.66378 3.7202,-4.1722 5,-7.5 1.4079,-3.32763 2.0654,-6.46242 1.9376,-9.40625 -10.7512,-4.99148 -21.5897,-7.4999 -32.4688,-7.5 z m 238.625,0 c -12.7989,10e-5 -22.6511,4.68814 -29.5625,14.03125 -6.9114,9.34328 -10.375,21.43457 -10.375,36.28125 0,14.84677 3.1348,26.93807 9.4063,36.28125 6.2715,9.34321 16.5714,14.03125 30.9062,14.03125 14.4627,0 26.8234,-3.67337 37.0625,-10.96875 -1.0239,-6.27146 -3.3226,-11.10678 -6.9063,-14.5625 -9.2151,4.47964 -17.6049,6.71876 -25.1562,6.71875 -7.5514,10e-6 -12.8659,-2.06058 -15.9375,-6.15625 -2.9439,-4.22362 -4.6161,-10.10486 -5,-17.65625 l 53.7813,0 c 1.2797,-5.50349 1.9062,-11.20619 1.9062,-17.09375 0,-11.77492 -3.4636,-21.50808 -10.375,-29.1875 -6.9115,-7.80724 -16.8231,-11.71865 -29.75,-11.71875 z m -145.5312,0.59375 c -13.8229,10e-5 -27.6459,2.86558 -41.4688,8.625 0.512,7.42345 2.632,13.12616 6.3438,17.09375 12.6708,-4.60754 22.4635,-6.90617 29.375,-6.90625 9.7271,8e-5 14.5937,5.04518 14.5937,15.15625 l 0,5.78125 c -5.2476,-0.5119 -10.8312,-0.7812 -16.7187,-0.78125 -10.8792,5e-5 -19.8357,2.74653 -26.875,8.25 -6.9114,5.37559 -10.375,13.43645 -10.375,24.1875 -1e-4,7.55138 2.5083,14.20925 7.5,19.96875 4.9915,5.75951 12.426,8.65625 22.2812,8.65625 9.8551,0 18.9902,-4.12119 27.4375,-12.3125 3.7116,6.52745 9.5333,10.26032 17.4687,11.15625 1.6639,-1.2799 3.2766,-3.07119 4.8126,-5.375 1.6638,-2.43179 2.7974,-4.73042 3.4374,-6.90625 -3.5837,-2.94373 -5.375,-7.96058 -5.375,-15 l 0,-39.15625 c -10e-5,-10.87901 -2.9846,-18.99937 -9,-24.375 -6.0155,-5.37545 -13.8384,-8.0624 -23.4374,-8.0625 z m -177.5938,0.375 c -9.2153,10e-5 -18.5006,4.09003 -27.8438,12.28125 -1.4079,-7.67926 -5.7672,-11.49991 -13.0624,-11.5 l -8.8438,0 -1.3438,1.15625 0,95.03125 c 3.8398,0.63994 7.8702,0.9375 12.0938,0.9375 4.2236,0 8.1351,-0.29756 11.7188,-0.9375 l 0,-65.875 c 6.1433,-6.39938 12.8608,-9.59367 20.1562,-9.59375 3.9676,8e-5 6.714,1.28403 8.25,3.84375 1.5358,2.43186 2.3125,6.5218 2.3125,12.28125 l 0,45.6875 c 0,5.11958 0.955,8.91196 2.875,11.34375 1.9197,2.4318 5.4429,3.65625 10.5625,3.65625 5.2475,0 9.995,-1.67227 14.2188,-5 -2.5599,-4.22363 -3.8439,-10.25515 -3.8438,-18.0625 l 0,-42.59375 c -10e-5,-9.7271 -2.2393,-17.60942 -6.7188,-23.625 -4.3517,-6.01539 -11.1881,-9.03115 -20.5312,-9.03125 z m 394.4375,0.375 c -5.2476,10e-5 -9.7853,1.73188 -13.625,5.1875 2.4318,4.22373 3.6563,10.19573 3.6563,17.875 l 0,42.8125 c 0,9.7272 2.1795,17.57827 6.5312,23.59375 4.4795,5.8875 10.9872,8.84375 19.5625,8.84375 10.751,0 21.0511,-4.59728 30.9063,-13.8125 3.3276,7.93534 9.5377,12.47309 18.625,13.625 4.2235,-3.07174 6.9104,-7.10216 8.0624,-12.09375 -3.5838,-2.81574 -5.375,-8.33993 -5.375,-16.53125 l 0,-68.15625 c -3.5837,-0.63985 -7.5546,-0.93741 -11.9062,-0.9375 -4.3516,9e-5 -8.3226,0.29765 -11.9062,0.9375 l 0,66.0625 c -6.1436,6.39948 -12.8609,9.59377 -20.1563,9.59375 -3.9676,2e-5 -6.7142,-1.22443 -8.25,-3.65625 -1.5359,-2.55975 -2.3125,-6.76871 -2.3125,-12.65625 l 0,-45.6875 c 0,-5.11947 -0.9552,-8.91187 -2.875,-11.34375 -1.9198,-2.4317 -5.562,-3.65615 -10.9375,-3.65625 z m -794.125,15.9375 c 5.6315,8e-5 9.7809,2.00117 12.4687,5.96875 2.6877,3.96774 4.0313,9.13186 4.0313,15.53125 l 0,2.3125 -33.375,0 c 0.7679,-15.87059 6.3799,-23.81242 16.875,-23.8125 z m 723.9687,0 c 5.6314,8e-5 9.781,2.00117 12.4688,5.96875 2.6877,3.96774 4.0312,9.13186 4.0312,15.53125 l 0,2.3125 -33.4062,0 c 0.7679,-15.87059 6.411,-23.81242 16.9062,-23.8125 z m -439.4687,0.78125 c 12.1589,8e-5 18.25,10.74789 18.25,32.25 0,21.5022 -6.0911,32.25002 -18.25,32.25 -12.031,2e-5 -18.0313,-10.7478 -18.0313,-32.25 0,-21.50211 6.0003,-32.24992 18.0313,-32.25 z m -97.25,1.53125 c 4.4796,9e-5 8.1217,2.41773 10.9375,7.28125 2.8158,4.86365 4.2187,12.41717 4.2188,22.65625 -1e-4,10.11117 -1.5222,17.99351 -4.5938,23.625 -2.9438,5.50355 -6.9742,8.25001 -12.0938,8.25 -4.9916,10e-6 -10.5752,-1.96981 -16.7187,-5.9375 l 0,-45.5 c 5.1195,-6.91134 11.2105,-10.37491 18.25,-10.375 z m -830.71875,11.78125 c -29.43456,0 -53.5,24.13553 -53.5,53.65625 l 0,247.71875 c 0,29.52074 24.06544,53.6875 53.5,53.6875 l 101.25,0 c 6.76177,16.881 28.98885,29.34375 55.46875,29.34375 26.55011,0 47.80235,-11.48555 57.40625,-29.34375 l 32.875,0 c 26.34468,0 48.34698,-19.36582 52.6875,-44.59375 l 108.1875,0 c 5.39258,0.004 10.57349,-3.96325 11.96875,-9.1875 0.69758,-2.61212 0.50174,-5.43964 -0.53125,-7.9375 -1.0331,-2.49784 -2.9137,-4.65003 -5.25,-6 l -113.53125,-65.75 0,-167.9375 c 0,-29.52072 -24.09677,-53.65625 -53.53125,-53.65625 l -152.3125,0 0,24.75 152.3125,0 c 16.17796,0 28.8125,12.68087 28.8125,28.90625 l 0,175.09375 c 0,4.32618 2.4519,8.55544 6.1875,10.71875 l 79.78125,46.21875 -73.625,0 c -3.23313,3.2e-4 -6.43261,1.33213 -8.71875,3.625 -2.28613,2.29285 -3.62469,5.53866 -3.625,8.78125 l 0,3.28125 c 0,16.22539 -12.63454,28.90625 -28.8125,28.90625 l -27.375,0 c -0.76561,-20.52534 -11.72041,-36.51813 -39.09375,-56.625 20.73256,-0.40134 31.0846,-3.24477 39.53125,-10.46875 9.21449,-7.62531 14.59375,-20.05203 14.59375,-34.5 0,-12.44129 -2.6651,-23.67069 -7.65625,-32.5 -11.51808,-20.46795 -30.7227,-40.14897 -56.0625,-57.40625 -26.49165,-18.4613 -39.9375,-34.10471 -39.9375,-47.75 0,-16.45464 13.06209,-27.6875 31.875,-27.6875 10.75023,0 20.71875,4.02285 20.71875,8.4375 0,1.60533 -2.29461,4.41434 -5.75,7.625 -6.91085,5.61866 -10.375,11.63135 -10.375,17.25 0,10.83597 11.89703,22.875 23.03125,22.875 13.05384,0 24.96875,-12.44353 24.96875,-25.6875 0,-21.27061 -25.74048,-39.75 -55.6875,-39.75 -33.40251,0 -57.1875,21.68624 -57.1875,52.1875 0,19.26395 6.89218,29.69783 38.375,58.59375 l -7.3125,0 c -30.33101,0 -47.1875,17.2635 -47.1875,48.96875 0,26.88926 10.36491,40.52938 64.5,86.28125 l 21.875,18.46875 c 10.75023,9.23064 14.21875,15.65242 14.21875,28.09375 0,18.86263 -9.99509,28.5 -30.34375,28.5 -13.43779,0 -26.125,-5.60498 -26.125,-11.625 0,-1.60535 1.55795,-3.25319 5.78125,-6.0625 8.83055,-5.61863 11.875,-10.42244 11.875,-16.84375 0,-12.03996 -11.49971,-22.46875 -24.9375,-22.46875 -8.71548,0 -16.27656,4.72005 -20.53125,12.09375 l -102.78125,0 c -16.17803,0 -28.8125,-12.68086 -28.8125,-28.90625 l 0,-247.71875 c 0,-16.22538 12.63447,-28.90625 28.8125,-28.90625 l 53.53125,0 0,-24.75 -53.53125,0 z m 1215.00005,23.9375 c 5.2474,3e-5 10.114,0.23809 14.5937,0.75 l 0,17.09375 c -6.1435,6.1435 -12.5633,9.21877 -19.2187,9.21875 -3.4558,2e-5 -6.2023,-1.07417 -8.25,-3.25 -2.0479,-2.30379 -3.0626,-5.52933 -3.0626,-9.625 0,-4.09562 1.3435,-7.46845 4.0313,-10.15625 2.6877,-2.68774 6.6586,-4.03122 11.9063,-4.03125 z m 77.7812,17.84375 c -5.3755,2e-5 -9.7943,0.95519 -13.25,2.875 -1.2799,2.68779 -1.9062,6.21089 -1.9062,10.5625 0,4.22365 0.6263,7.62773 1.9062,10.1875 3.0717,1.91984 7.4906,2.875 13.25,2.875 5.7595,0 10.0279,-0.95516 12.8438,-2.875 1.2798,-2.55977 1.9374,-5.96385 1.9374,-10.1875 0,-4.35161 -0.6576,-7.87471 -1.9374,-10.5625 -3.1999,-1.91981 -7.4682,-2.87498 -12.8438,-2.875 z m -1625,63.8125 c -9.40657,0.0414 -18.81511,0.20181 -28.21875,0.15625 2.160063,20.8822 6.09526,41.5566 11.84375,61.78125 25.53073,92.79651 87.41004,175.11923 170.125,224.25 78.77057,47.74214 175.94356,65.60204 266.6875,47.34374 58.11746,-11.1555 113.32581,-36.38612 160.0625,-72.53124 -9.27445,0.6491 -18.69931,0.25422 -27.6875,-0.125 -13.11228,18.48827 -35.7058,28.20988 -57.96875,29.40625 -6.85212,0.40787 -13.88402,0.0992 -20.8125,-1.03125 -77.90959,29.78684 -166.81096,31.14604 -245.125,2.03125 C 276.81249,954.95536 209.675,898.36345 169.25,825.89341 145.89044,784.79508 131.1124,738.84118 125.75,691.79966 z m 1395.6562,21.25 -0.5,0.59375 0,59.8125 c 4.8157,1.86963 10.1763,2.8125 16.125,2.8125 2.9462,0 5.6576,-0.51145 8.0938,-1.53125 2.4928,-1.0198 4.6186,-2.47412 6.375,-4.34375 1.7563,-1.86963 3.0993,-4.11259 4.0625,-6.71875 1.0197,-2.66279 1.5312,-5.58312 1.5313,-8.8125 -1e-4,-6.91194 -1.263,-12.37783 -3.8126,-16.34375 -2.4929,-3.96584 -6.1902,-5.93746 -11.0624,-5.9375 -3.9094,4e-5 -7.4153,1.18301 -10.5313,3.5625 l 0,-16.21875 c 0,-2.54944 -0.4744,-4.32389 -1.4375,-5.34375 -0.9065,-1.01973 -2.478,-1.53118 -4.6875,-1.53125 l -4.1563,0 z m 216.5938,0 -0.5,0.59375 0,61.9375 c 0.9065,0.16997 1.8122,0.28705 2.7188,0.34375 0.9065,0.0567 1.8122,0.0937 2.7187,0.0937 0.9631,0 1.869,-0.0371 2.7187,-0.0937 0.9065,-0.0567 1.8065,-0.17378 2.6563,-0.34375 l 0,-28.875 c 2.6062,-2.71943 5.4035,-4.09372 8.4063,-4.09375 1.6995,3e-5 2.8454,0.51148 3.4687,1.53125 0.6232,1.01983 0.9375,2.79428 0.9375,5.34375 l 0,19.8125 c 0,2.37954 0.4685,4.14815 1.375,5.28125 0.9065,1.07646 2.5638,1.59375 5,1.59375 2.5495,0 4.7495,-0.78864 6.5625,-2.375 -1.1898,-1.75631 -1.8126,-4.43655 -1.8125,-8.0625 l 0,-18.53125 c -10e-5,-4.41909 -0.9859,-7.92506 -2.9688,-10.53125 -1.9262,-2.66276 -4.9209,-3.99996 -9,-4 -4.0226,4e-5 -8.0028,1.73155 -11.9687,5.1875 l 0,-17.9375 c 0,-2.54944 -0.4685,-4.32389 -1.375,-5.34375 -0.8499,-1.01973 -2.3843,-1.53118 -4.5937,-1.53125 l -4.3438,0 z m 107.1562,0 -0.5937,0.59375 0,52 c 0,3.56931 0.7515,6.20659 2.2813,7.90625 1.5297,1.64301 3.9327,2.46875 7.2187,2.46875 2.0396,0 4.794,-0.27135 8.25,-0.78125 0.17,-0.67987 0.2499,-1.74571 0.25,-3.21875 -10e-5,-1.47304 -0.2831,-3.00739 -0.9063,-4.59375 l -2.6562,0 c -2.3796,10e-6 -3.5625,-1.30008 -3.5625,-3.90625 l 0,-43.59375 c 0,-2.49279 -0.4685,-4.2614 -1.375,-5.28125 -0.9065,-1.0764 -2.4468,-1.59368 -4.6563,-1.59375 l -4.25,0 z m -180.5,7.46875 c -2.2095,5e-5 -3.7809,0.5115 -4.6874,1.53125 -0.9066,1.01985 -1.3439,2.75721 -1.3438,5.25 l 0,6.125 -6.4688,-0.0625 c -0.2833,1.13315 -0.4062,2.43909 -0.4062,3.96875 0,1.52973 0.1229,2.86693 0.4062,4 l 6.4688,-0.0937 0,24.40625 c -10e-5,6.91198 3.3889,10.375 10.1875,10.375 3.3427,0 6.7315,-0.27135 10.1875,-0.78125 0.17,-0.45324 0.2812,-1.43905 0.2812,-2.96875 -10e-5,-1.5297 -0.3083,-3.14408 -0.875,-4.84375 l -5.25,0 c -2.4361,10e-6 -3.6562,-1.30008 -3.6562,-3.90625 l 0,-22.34375 10.2812,0.15625 c 0.3399,-1.3597 0.5,-2.69689 0.5,-4 -10e-5,-1.30304 -0.1601,-2.60898 -0.5,-3.96875 l -10.2812,0.15625 0,-12.5 -0.5938,-0.5 -4.25,0 z m 49.625,0 c -2.2094,5e-5 -3.781,0.5115 -4.6874,1.53125 -0.9066,1.01985 -1.3438,2.75721 -1.3438,5.25 l 0,6.125 -6.4688,-0.0625 c -0.2833,1.13315 -0.4062,2.43909 -0.4062,3.96875 0,1.52973 0.1229,2.86693 0.4062,4 l 6.4688,-0.0937 0,24.40625 c 0,6.91198 3.3888,10.375 10.1875,10.375 3.3427,0 6.7628,-0.27135 10.2187,-0.78125 0.17,-0.45324 0.25,-1.43905 0.25,-2.96875 0,-1.5297 -0.2772,-3.14408 -0.8437,-4.84375 l -5.2813,0 c -2.4362,10e-6 -3.6562,-1.30008 -3.6562,-3.90625 l 0,-22.34375 10.2812,0.15625 c 0.34,-1.3597 0.5,-2.69689 0.5,-4 0,-1.30304 -0.1601,-2.60898 -0.5,-3.96875 l -10.2812,0.15625 0,-12.5 -0.5938,-0.5 -4.25,0 z m -132,11.71875 c -6.062,5e-5 -10.7452,2.00876 -14.0312,6.03125 -3.286,3.96592 -4.9375,9.39471 -4.9375,16.25 0,3.39935 0.4315,6.4739 1.2813,9.25 0.8498,2.71948 2.0699,5.04247 3.6562,6.96875 1.643,1.92629 3.6147,3.42355 5.9375,4.5 2.3796,1.0198 5.091,1.53125 8.0937,1.53125 3.0029,0 5.683,-0.51145 8.0626,-1.53125 2.3794,-1.07645 4.3823,-2.57371 5.9687,-4.5 1.643,-1.92628 2.869,-4.24927 3.7187,-6.96875 0.8499,-2.7761 1.2813,-5.85065 1.2813,-9.25 0,-7.64846 -2.0087,-13.47743 -6.0313,-17.5 -3.3427,-3.17267 -7.6744,-4.7812 -13,-4.78125 z m 216.5,0 c -2.8327,5e-5 -5.3529,0.54858 -7.5624,1.625 -2.2096,1.07649 -4.0953,2.61085 -5.625,4.59375 -1.5298,1.92632 -2.6756,4.25516 -3.4688,7.03125 -0.7932,2.71949 -1.1875,5.78819 -1.1875,9.1875 0,7.30857 1.5343,12.82324 4.5937,16.5625 3.1161,3.6826 7.6508,5.53125 13.6563,5.53125 6.3454,0 11.8112,-1.61438 16.3437,-4.84375 -0.4532,-2.77611 -1.5132,-5.01908 -3.1562,-6.71875 -4.2492,1.92629 -8.0265,2.90626 -11.3125,2.90625 -3.1728,10e-6 -5.4157,-0.86867 -6.7187,-2.625 -1.2466,-1.81297 -1.955,-4.29019 -2.125,-7.40625 l 23.4687,0 c 0.2832,-1.24641 0.5175,-2.50355 0.6875,-3.75 0.17,-1.30305 0.25,-2.64609 0.25,-4.0625 0,-2.60613 -0.3943,-5.00915 -1.1875,-7.21875 -0.7365,-2.20952 -1.8765,-4.13236 -3.4063,-5.71875 -1.5297,-1.64297 -3.3842,-2.86888 -5.5937,-3.71875 -2.2096,-0.90645 -4.7668,-1.37495 -7.6563,-1.375 z M 1495,732.42466 c -6.402,4e-5 -12.6195,1.26304 -18.625,3.8125 0.3399,3.51267 1.32,6.14996 2.9062,7.90625 5.779,-1.98291 10.0735,-2.96871 12.9063,-2.96875 4.1925,4e-5 6.2812,2.13171 6.2813,6.4375 l 0,2.3125 c -1.6998,-0.16995 -4.0658,-0.24998 -7.125,-0.25 -2.3796,2e-5 -4.5854,0.31432 -6.625,0.9375 -1.9831,0.62324 -3.7516,1.529 -5.2813,2.71875 -1.473,1.18978 -2.619,2.68704 -3.4687,4.5 -0.7933,1.75633 -1.1876,3.80799 -1.1876,6.1875 0,1.64302 0.2401,3.25156 0.75,4.78125 0.5665,1.52971 1.3923,2.87274 2.4688,4.0625 1.1331,1.18977 2.5132,2.13263 4.1562,2.8125 1.6997,0.73652 3.6655,1.09375 5.875,1.09375 4.3625,0 8.3799,-1.77445 12.0626,-5.34375 1.6997,2.77612 4.3798,4.3905 8.0624,4.84375 0.7365,-0.56656 1.4822,-1.42939 2.2188,-2.5625 0.7365,-1.13311 1.2479,-2.19895 1.5312,-3.21875 -1.5864,-1.18976 -2.375,-3.2785 -2.375,-6.28125 l 0,-17.4375 c -10e-5,-4.81569 -1.3743,-8.40169 -4.0937,-10.78125 -2.7195,-2.37949 -6.1883,-3.56246 -10.4375,-3.5625 z m 393.0312,0 c -6.4021,4e-5 -12.5883,1.26304 -18.5937,3.8125 0.3399,3.51267 1.2886,6.14996 2.875,7.90625 5.7788,-1.98291 10.1048,-2.96871 12.9375,-2.96875 4.1925,4e-5 6.2812,2.13171 6.2812,6.4375 l 0,2.3125 c -1.6997,-0.16995 -4.0968,-0.24998 -7.1562,-0.25 -2.3795,2e-5 -4.5854,0.31432 -6.625,0.9375 -1.9829,0.62324 -3.7203,1.529 -5.25,2.71875 -1.4731,1.18978 -2.6502,2.68704 -3.5,4.5 -0.7932,1.75633 -1.1875,3.80799 -1.1875,6.1875 0,1.64302 0.2713,3.25156 0.7813,4.78125 0.5666,1.52971 1.3922,2.87274 2.4687,4.0625 1.1331,1.18977 2.5132,2.13263 4.1563,2.8125 1.6997,0.73652 3.6341,1.09375 5.8437,1.09375 4.3624,0 8.4111,-1.77445 12.0937,-5.34375 1.6996,2.77612 4.3799,4.3905 8.0626,4.84375 0.7365,-0.56656 1.4821,-1.42939 2.2187,-2.5625 0.7364,-1.13311 1.2478,-2.19895 1.5313,-3.21875 -1.5865,-1.18976 -2.4063,-3.2785 -2.4063,-6.28125 l 0,-17.4375 c 0,-4.81569 -1.343,-8.40169 -4.0625,-10.78125 -2.7195,-2.37949 -6.2197,-3.56246 -10.4688,-3.5625 z m 26.3438,0.25 c -1.7563,4e-5 -3.728,0.43731 -5.9375,1.34375 l 8.5,36.46875 c 0.5099,2.20957 1.2985,3.66973 2.375,4.40625 1.1331,0.73652 3.1789,1.125 6.125,1.125 2.9461,0 5.4234,-0.15422 7.4063,-0.4375 l 2.875,-15.46875 c 1.4729,-8.21502 2.4158,-13.80389 2.8124,-16.75 l 0.5,0 c 0.6799,4.70243 1.5856,10.32839 2.7188,16.84375 l 1.875,10.4375 c 0.3399,2.20957 1.0485,3.66388 2.125,4.34375 1.0764,0.67987 3.0852,1.03125 6.0312,1.03125 3.0028,0 5.4429,-0.15422 7.3126,-0.4375 l 10.1874,-41.03125 -0.3437,-0.6875 c -1.2465,-0.62317 -2.978,-0.93746 -5.1875,-0.9375 -2.1529,4e-5 -3.8103,0.16011 -5,0.5 l -4.25,19.5625 c -0.7366,3.68263 -1.6053,8.45159 -2.625,14.34375 -0.3966,10e-6 -0.6305,-0.20299 -0.6875,-0.65625 l -5.875,-33 c -1.6431,-0.33989 -3.7748,-0.49996 -6.4375,-0.5 -2.6629,4e-5 -4.8999,0.16011 -6.6562,0.5 l -5.8438,33.65625 c -0.3399,10e-6 -0.5743,-0.20299 -0.6875,-0.65625 -0.51,-3.56928 -1.3356,-8.13524 -2.4687,-13.6875 L 1920,737.33091 c -0.2833,-1.58632 -0.8377,-2.73219 -1.6875,-3.46875 -0.7932,-0.79314 -2.1245,-1.18746 -3.9375,-1.1875 z m -299.6875,0.0937 c -2.4362,5e-5 -4.5679,0.78869 -6.4375,2.375 1.1898,1.86967 1.7812,4.5499 1.7812,8.0625 l 0,18.625 c 1e-4,4.36248 0.9858,7.86845 2.9688,10.53125 1.9829,2.66281 4.8603,4 8.6562,4 4.6459,0 9.1688,-2.04581 13.5313,-6.125 1.5863,3.62595 4.4266,5.63466 8.5625,6.03125 0.7931,-0.56656 1.5387,-1.39229 2.2188,-2.46875 0.7364,-1.07645 1.2478,-2.13644 1.5312,-3.15625 -1.5864,-1.35972 -2.375,-3.68857 -2.375,-7.03125 l 0,-30.1875 c -1.3597,-0.28324 -3.2513,-0.4062 -5.6875,-0.40625 -2.3795,5e-5 -4.1911,0.12301 -5.4375,0.40625 l 0,29 c -2.6062,2.60616 -5.4348,3.90626 -8.4375,3.90625 -1.6997,10e-6 -2.8456,-0.51144 -3.4687,-1.53125 -0.6233,-1.07644 -0.9376,-2.84505 -0.9376,-5.28125 l 0,-19.78125 c 0,-2.32284 -0.4684,-4.05435 -1.375,-5.1875 -0.9064,-1.18972 -2.6008,-1.7812 -5.0937,-1.78125 z m 184.5937,7.46875 c 2.3796,3e-5 4.1481,0.82578 5.2813,2.46875 1.1331,1.64304 1.6875,3.81182 1.6875,6.53125 l 0,1.03125 -14.0938,0 c 0.3399,-6.68532 2.7059,-10.03122 7.125,-10.03125 z m -217,0.34375 c 5.0991,4e-5 7.6563,4.64603 7.6563,13.9375 0,9.23486 -2.5573,13.84375 -7.6563,13.84375 -5.0422,0 -7.5624,-4.60889 -7.5624,-13.84375 -1e-4,-9.29147 2.5201,-13.93746 7.5624,-13.9375 z m -43.125,1.09375 c 4.3625,4e-5 6.5626,4.13458 6.5626,12.40625 0,4.58912 -0.7829,8.09507 -2.3126,10.53125 -1.4731,2.37953 -3.5988,3.59376 -6.375,3.59375 -1.643,10e-6 -3.4175,-0.23425 -5.3437,-0.6875 l 0,-22.09375 c 1.1331,-1.30305 2.3102,-2.24591 3.5,-2.8125 1.1897,-0.62318 2.4957,-0.93746 3.9687,-0.9375 z m -45.7812,15.3125 c 0.7931,0 1.6189,0.006 2.4688,0.0625 0.8498,0.0567 1.7183,0.1309 2.625,0.1875 l 0,7.375 c -2.493,2.49285 -5.136,3.75 -7.9688,3.75 -1.473,0 -2.6502,-0.46851 -3.5,-1.375 -0.8498,-0.96314 -1.2812,-2.26907 -1.2812,-3.96875 0,-2.15289 0.6656,-3.68725 1.9687,-4.59375 1.303,-0.96313 3.1946,-1.43748 5.6875,-1.4375 z m 393.0625,0 c 0.7932,0 1.619,0.006 2.4687,0.0625 0.8498,0.0567 1.7185,0.1309 2.625,0.1875 l 0,7.375 c -2.4928,2.49285 -5.1673,3.75 -8,3.75 -1.4731,0 -2.6189,-0.46851 -3.4687,-1.375 -0.8499,-0.96314 -1.2813,-2.26907 -1.2813,-3.96875 0,-2.15289 0.6657,-3.68725 1.9688,-4.59375 1.3031,-0.96313 3.1947,-1.43748 5.6875,-1.4375 z m -1292.5,3.34375 c 11.51811,0 27.66013,10.84107 53,36.125 12.66988,12.4413 16.5,20.03903 16.5,30.875 0,13.64529 -8.82557,23.28125 -20.34375,23.28125 -11.51808,0 -19.57984,-5.19814 -43,-26.46875 -23.0362,-20.86927 -26.875,-26.8958 -26.875,-41.34375 0,-12.84263 8.81671,-22.46875 20.71875,-22.46875 z m 169.09375,92 c -1.80325,2.61693 -3.62771,5.245 -5.5,7.8125 6.48574,-0.0706 13.02811,0.24491 19.40625,0.25 -4.58368,-2.75035 -9.24929,-5.39943 -13.90625,-8.0625 z"
       id="path4007"
       inkscape:connector-curvature="0"
       transform="matrix(1.0028658,0,0,1.0028658,-22.916257,-31.866456)" />
    <g
       inkscape:export-ydpi="11.98811"
       inkscape:export-xdpi="11.98811"
       inkscape:export-filename="/home/tadeusz/Dokumenty/Radzimy/logo.png"
       transform="matrix(1.0122677,0,0,1.0152306,7.6967948,772.25178)"
       id="g2995">
      <path
         style="font-size:medium;font-style:normal;font-variant:normal;font-weight:normal;font-stretch:normal;text-indent:0;text-align:start;text-decoration:none;line-height:normal;letter-spacing:normal;word-spacing:normal;text-transform:none;direction:ltr;block-progression:tb;writing-mode:lr-tb;text-anchor:start;baseline-shift:baseline;color:#000000;fill:#ffffff;fill-opacity:1;stroke:none;stroke-width:30;marker:none;visibility:visible;display:inline;overflow:visible;enable-background:accumulate;font-family:Sans;-inkscape-font-specification:Sans"
         d="m 456.68387,-212.99718 -53.01953,0 c -29.16118,0 -53.01952,23.85835 -53.01952,53.01953 l 0,244.70551 c 0,29.1612 23.85834,53.0195 53.01952,53.0195 l 100.30377,0 c 6.69897,16.6754 28.72282,28.9823 54.95678,28.9823 26.30351,0 47.35381,-11.3416 56.86851,-28.9823 l 32.5765,0 c 26.1,0 47.9036,-19.1263 52.2038,-44.04697 l 107.1861,0 c 5.3425,0.004 10.4466,-3.90985 11.8289,-9.07047 0.6911,-2.58031 0.5063,-5.38693 -0.5171,-7.85437 -1.0235,-2.46742 -2.8796,-4.58081 -5.1942,-5.91434 l -112.488,-64.94892 0,-165.88994 c 0,-29.16118 -23.8584,-53.01953 -53.0195,-53.01953 l -150.90178,0 0,24.47055 150.90178,0 c 16.0277,0 28.5489,12.52121 28.5489,28.54898 l 0,172.95071 c 0,4.27349 2.4168,8.46695 6.1177,10.60391 l 79.0449,45.65287 -72.9273,0 c -3.2031,3.2e-4 -6.3864,1.31905 -8.6513,3.58399 -2.2649,2.26493 -3.5837,5.44819 -3.584,8.65129 l 0,3.26274 c 0,16.02778 -12.5212,28.549 -28.5489,28.549 l -27.1216,0 c -0.7585,-20.27536 -11.6259,-36.08894 -38.745,-55.95092 20.54,-0.39645 30.8102,-3.18752 39.1784,-10.32352 9.1289,-7.53244 14.4529,-19.80834 14.4529,-34.08034 0,-12.28977 -2.6513,-23.39582 -7.5961,-32.11759 -11.4111,-20.21867 -30.4386,-39.64301 -55.54304,-56.69011 -26.2456,-18.23645 -39.56073,-33.70318 -39.56073,-47.18228 0,-16.25423 12.94413,-27.35094 31.58231,-27.35094 10.65038,0 20.51956,3.97439 20.51956,8.33528 0,1.58577 -2.261,4.34804 -5.68429,7.51959 -6.84667,5.55023 -10.27253,11.5027 -10.27253,17.05292 0,10.704 11.78292,22.60977 22.81372,22.60977 12.9326,0 24.7254,-12.30553 24.7254,-25.3882 0,-21.01155 -25.4918,-39.25484 -55.16068,-39.25484 -33.09227,0 -56.66462,21.41133 -56.66462,51.5411 0,19.02933 6.8409,29.34415 38.03131,57.88814 l -7.2392,0 c -30.0493,0 -46.77444,17.03573 -46.77444,48.35483 0,26.56177 10.27153,40.04444 63.90382,85.23909 l 21.69213,18.25095 c 10.65038,9.11822 14.07058,15.44347 14.07058,27.73327 0,18.6329 -9.89325,28.1666 -30.05291,28.1666 -13.31298,0 -25.87251,-5.5493 -25.87251,-11.496 0,-1.5858 1.52572,-3.1896 5.7098,-5.9647 8.74853,-5.5502 11.77645,-10.302 11.77645,-16.6451 0,-11.89332 -11.38698,-22.20191 -24.69996,-22.20191 -8.63453,0 -16.15147,4.67102 -20.36664,11.95491 l -101.80769,0 c -16.02777,0 -28.54897,-12.52122 -28.54897,-28.549 l 0,-244.70551 c 0,-16.02777 12.5212,-28.54898 28.54897,-28.54898 l 53.01953,0 z m 81.69595,172.00758 c 11.41113,0 27.37976,10.71023 52.48428,35.68622 12.5522,12.28977 16.3646,19.80772 16.3646,30.51172 0,13.4791 -8.7515,22.99212 -20.1627,22.99212 -11.4111,0 -19.3914,-5.14135 -42.59403,-26.1529 -22.82225,-20.6151 -26.63721,-26.56324 -26.63721,-40.83523 0,-12.68622 8.75357,-22.20193 20.54506,-22.20193 z"
         id="path4238"
         inkscape:connector-curvature="0"
         sodipodi:nodetypes="csssscscsccssccssccssccccscsscccsccssscssssscssccssscsscssssccscsscss" />
      <path
         style="font-size:medium;font-style:normal;font-variant:normal;font-weight:normal;font-stretch:normal;text-indent:0;text-align:start;text-decoration:none;line-height:normal;letter-spacing:normal;word-spacing:normal;text-transform:none;direction:ltr;block-progression:tb;writing-mode:lr-tb;text-anchor:start;baseline-shift:baseline;color:#000000;fill:#cccccc;fill-opacity:1;stroke:none;stroke-width:30;marker:none;visibility:visible;display:inline;overflow:visible;enable-background:accumulate;font-family:Sans;-inkscape-font-specification:Sans"
         d="m 279.06846,-465.4262 c -34.4315,0 -60.60244,16.08803 -68.79793,40.35091 l -18.68429,0 c -29.16118,0 -53.01953,23.85835 -53.01953,53.01953 l 0,165.91543 -112.48806,64.94892 c -2.30222,1.33915 -4.14552,3.45157 -5.16052,5.91395 -1.01501,2.46239 -1.1957,5.26013 -0.50587,7.83262 1.37966,5.14498 6.4573,9.05193 11.78403,9.06712 l 107.18611,0 c 4.30014,24.92062 26.10379,44.047 52.20384,44.047 l 150.90173,0 0,-24.47056 -150.90173,0 c -16.02777,0 -28.54897,-12.5212 -28.54897,-28.54897 l 0,-3.26274 c -3.3e-4,-3.2031 -1.31906,-6.38636 -3.58399,-8.65129 -2.26494,-2.26493 -5.44819,-3.58367 -8.65129,-3.58399 l -72.92734,0 79.04498,-45.65287 c 3.70082,-2.13695 6.12013,-6.33042 6.11764,-10.6039 l 0,-172.95072 c 0,-16.02777 12.5212,-28.54897 28.54897,-28.54897 l 16.77252,0 c 2.74585,13.3268 12.55055,22.38035 25.08231,22.38035 14.4541,0 23.96075,-10.29782 23.96075,-25.3627 0,-7.92889 -1.89447,-12.68125 -8.36077,-20.2137 -4.56445,-5.15377 -5.70979,-7.53162 -5.70979,-11.49606 0,-9.51466 9.50269,-15.88037 23.19604,-15.88037 20.15965,0 31.93917,19.03267 31.93917,51.5411 0,20.6151 -3.78695,34.50663 -16.3392,59.08619 -9.1289,18.23644 -12.18429,27.33871 -12.18429,38.43915 0,4.36089 0.004,6.35762 0.7647,18.25095 l 11.41959,0 c 0,-28.94043 3.03072,-34.49938 26.99408,-49.9607 34.61375,-22.20089 46.03522,-38.46093 46.03522,-65.81559 0,-0.32698 -0.0215,-0.64348 -0.0254,-0.96862 l 81.16066,0 c 16.02777,0 28.54897,12.5212 28.54897,28.54897 0,81.5685 0,163.13701 0,244.70551 0,16.02777 -12.5212,28.54897 -28.54897,28.54897 l -53.01957,0 0,24.47056 53.01957,0 c 29.16118,0 53.01952,-23.85835 53.01952,-53.01953 0,-81.5685 0,-163.13701 0,-244.70551 0,-29.16118 -23.85834,-53.01953 -53.01952,-53.01953 l -85.92732,0 C 340.09826,-450.08776 314.0393,-465.4262 279.0685,-465.4262 z m -2.26863,211.28791 c -17.49706,0 -32.34701,15.47564 -32.34701,33.31563 0,19.02933 14.08921,33.69799 32.34701,33.69799 17.87744,0 31.93917,-14.68275 31.93917,-33.31563 0,-18.23645 -14.4421,-33.69799 -31.93917,-33.69799 z"
         id="path4230"
         inkscape:connector-curvature="0"
         sodipodi:nodetypes="scssccssccsccsscsccccsscsscssscscccscsccsccsccscssssss" />
      <path
         style="font-size:medium;font-style:normal;font-variant:normal;font-weight:normal;font-stretch:normal;text-indent:0;text-align:start;text-decoration:none;line-height:normal;letter-spacing:normal;word-spacing:normal;text-transform:none;direction:ltr;block-progression:tb;writing-mode:lr-tb;text-anchor:start;baseline-shift:baseline;color:#000000;fill:#ffffff;fill-opacity:1;stroke:none;stroke-width:30;marker:none;visibility:visible;display:inline;overflow:visible;enable-background:accumulate;font-family:Sans;-inkscape-font-specification:Sans"
         d="m 421.78785,-523.00847 c -1.44283,0.004 -2.89004,0.004 -4.33333,0.0255 -88.11098,-0.18149 -174.79377,33.49169 -241.59571,90.28614 8.56731,-2.26361 17.59133,-3.02516 26.30585,-2.3451 2.30375,1.30937 1.97173,-0.99547 2.59999,-2.52352 14.64134,-25.61522 45.10233,-38.18334 73.81949,-37.69994 6.837,-0.18363 13.81194,0.35979 20.67252,1.60588 38.39315,-14.29503 79.27042,-21.88116 120.36452,-21.71762 121.25157,-1.05045 240.41132,66.92766 300.47792,172.13503 51.833,88.08952 62.3971,200.18121 25.949,296.09367 -4.6039,12.46461 -9.9456,24.63749 -15.9568,36.47641 l 23.9353,13.86665 c 32.8364,-64.13776 47.3409,-137.68792 39.2548,-209.65656 -9.4243,-91.87089 -53.9581,-180.21361 -123.2704,-241.06041 -67.517,-60.34575 -157.3252,-95.72831 -248.22315,-95.48613 z m -290.99563,135.86254 c -12.25582,14.76171 -23.36082,30.49003 -33.08622,47.10581 -31.9758,53.20973 -50.0022,114.62772 -52.7391,176.64679 9.5428,-5.68978 19.1523,-11.26084 28.8038,-16.77253 1.118,-11.78859 2.872,-23.53231 5.251,-35.15092 8.5121,-43.50655 25.6203,-85.24322 49.75679,-122.37825 l 0,-17.46075 c -0.98241,-10.59076 -0.58323,-21.61648 2.01373,-31.99015 z M 74.5354,-108.69146 c -9.3192,0.0409 -18.6464,0.19795 -27.9627,0.15294 2.14,20.62788 6.0304,41.0706 11.7255,61.04893 25.2936,91.66632 86.59421,172.97705 168.54092,221.50945 78.03896,47.16064 174.30436,64.81044 264.20548,46.77454 57.57767,-11.0197 112.2972,-35.94804 158.5998,-71.65294 -9.1883,0.6412 -18.5482,0.2472 -27.4529,-0.1274 -12.9905,18.2631 -35.3477,27.877 -57.40387,29.0588 -6.78848,0.4029 -13.7829,0.097 -20.64703,-1.0197 -77.18597,29.42404 -165.23257,30.74854 -242.81924,1.9883 C 224.20061,151.25846 157.66334,95.3683 117.6138,23.78089 94.4712,-16.8169 79.848,-62.22287 74.5354,-108.69146 z M 705.9011,49.9083 c -1.7865,2.58506 -3.6,5.1618 -5.4549,7.69803 6.4255,-0.0697 12.9007,0.24987 19.2196,0.2549 -4.5411,-2.71685 -9.151,-5.32229 -13.7647,-7.95293 z"
         id="path24"
         inkscape:connector-curvature="0" />
    </g>
    <g
       transform="matrix(0.90941694,0,0,0.90941694,351.73642,50.818148)"
       id="g3183">
      <g
         transform="matrix(1.0476191,0,0,1.0476191,-356.04604,209.42878)"
         style="font-size:40px;font-style:normal;font-weight:normal;line-height:125%;letter-spacing:0px;word-spacing:0px;fill:#000000;fill-opacity:1;stroke:none;font-family:Sans"
         id="text3015" />
      <g
         style="font-size:211.71136475px;font-style:normal;font-variant:normal;font-weight:600;font-stretch:normal;text-align:start;line-height:125%;letter-spacing:0px;word-spacing:0px;writing-mode:lr-tb;text-anchor:start;fill:#ffffff;fill-opacity:1;stroke:none;font-family:Signika Negative;-inkscape-font-specification:Signika Negative Semi-Bold"
         id="text3169-0"
         transform="translate(-25.142857,0)">
        <path
           d="m 740.13772,527.71176 c -1.1e-4,9.45653 -2.61122,17.64269 -7.83332,24.55852 -5.08117,6.77483 -11.36194,11.50305 -18.84231,14.18466 6.91581,2.39945 12.06745,8.53908 15.45493,18.41889 l 8.25674,22.22969 c 2.68156,7.1982 5.99837,12.27927 9.95044,15.24322 -3.95207,5.50449 -10.02112,8.25674 -18.20718,8.25674 -4.65775,0 -8.18627,-1.1997 -10.58557,-3.59909 -2.25834,-2.54053 -4.37546,-6.70419 -6.35134,-12.49097 l -9.52701,-26.0405 c -1.83491,-5.08103 -4.2343,-8.9624 -7.19819,-11.64413 -2.82288,-2.68162 -7.12768,-4.02246 -12.91439,-4.02251 l -13.97295,0 0,56.10351 c -3.52856,0.7057 -8.04507,1.05856 -13.54953,1.05856 -5.36338,0 -9.73874,-0.35286 -13.1261,-1.05856 l 0,-143.54031 1.48198,-1.27026 c 22.30022,-0.56442 38.10799,-0.8467 47.42334,-0.84685 15.102,1.5e-4 27.09896,3.81095 35.99094,11.43241 9.0329,7.62174 13.54941,18.63072 13.54952,33.02698 m -71.77015,-23.71168 0,47.63506 c 10.16209,-0.2822 17.00742,-0.42334 20.536,-0.42342 15.66656,8e-5 23.49988,-7.83324 23.49996,-23.49996 -8e-5,-15.66653 -7.8334,-23.49984 -23.49996,-23.49996 -9.17421,1.2e-4 -16.01954,-0.0704 -20.536,-0.21172"
           style="line-height:125%;letter-spacing:0.29631141;fill:#ffffff;font-family:Signika Negative;-inkscape-font-specification:Signika Negative Semi-Bold"
           id="path3076"
           inkscape:connector-curvature="0" />
        <path
           d="m 846.60067,584.87383 -59.27918,0 c 0.42338,8.32735 2.25821,14.81982 5.50449,19.47744 3.38734,4.51653 9.24468,6.77478 17.57204,6.77477 8.32725,10e-6 17.57197,-2.46995 27.73419,-7.4099 3.95186,3.81082 6.49239,9.17417 7.62161,16.09006 -11.29135,8.04503 -24.91144,12.06755 -40.86029,12.06755 -15.80782,0 -27.16965,-5.15164 -34.08553,-15.45493 -6.91592,-10.30326 -10.37387,-23.64107 -10.37386,-40.01345 -10e-6,-16.37228 3.81079,-29.71008 11.43242,-40.01345 7.62158,-10.30318 18.48942,-15.45482 32.60355,-15.45493 14.25516,1.1e-4 25.19357,4.30491 32.81526,12.9144 7.62151,8.46854 11.43231,19.19524 11.43241,32.18012 -10e-5,6.49254 -0.7058,12.77331 -2.11711,18.84232 m -40.8603,-44.88281 c -11.57359,9e-5 -17.78379,8.75081 -18.6306,26.25221 l 36.83778,0 0,-2.54054 c -7e-5,-7.05697 -1.48205,-12.77317 -4.44594,-17.14862 -2.96402,-4.37528 -7.5511,-6.56296 -13.76124,-6.56305"
           style="line-height:125%;letter-spacing:0.29631141;fill:#ffffff;font-family:Signika Negative;-inkscape-font-specification:Signika Negative Semi-Bold"
           id="path3078"
           inkscape:connector-curvature="0" />
        <path
           d="m 863.42039,621.28818 c 0.14113,-2.82281 0.98798,-5.99847 2.54054,-9.52701 1.55254,-3.66964 3.38737,-6.49246 5.50449,-8.46846 11.29125,6.06908 21.1711,9.10361 29.63959,9.10359 5.08103,2e-5 9.03297,-0.98797 11.85584,-2.96396 2.9639,-1.97595 4.44588,-4.58705 4.44594,-7.83332 -6e-5,-5.50446 -3.952,-9.73868 -11.85584,-12.70268 l -11.85584,-4.44594 c -17.78377,-6.63357 -26.67564,-16.86627 -26.67563,-30.69814 -1e-5,-9.87978 3.59908,-17.78367 10.79728,-23.71168 7.19816,-6.06895 16.72516,-9.10348 28.58104,-9.10359 11.99691,1.1e-4 23.92331,2.75236 35.77922,8.25675 0.14105,3.24633 -0.56465,6.70428 -2.11712,10.37385 -1.41149,3.66975 -3.24632,6.422 -5.50449,8.25675 -10.4445,-4.79871 -19.9715,-7.1981 -28.58104,-7.19819 -3.95199,9e-5 -7.12765,0.9175 -9.52701,2.75225 -2.25829,1.83491 -3.38742,4.30488 -3.38738,7.4099 -4e-5,4.51658 3.7402,8.11567 11.2207,10.79728 l 12.9144,4.86936 c 18.2071,6.77482 27.31068,17.64266 27.31076,32.60355 -8e-5,10.02102 -3.81089,17.99548 -11.43241,23.92338 -7.48054,5.92792 -17.92495,8.89188 -31.33328,8.89188 -13.26728,0 -26.04052,-3.52852 -38.31976,-10.58557"
           style="line-height:125%;letter-spacing:0.29631141;fill:#ffffff;font-family:Signika Negative;-inkscape-font-specification:Signika Negative Semi-Bold"
           id="path3080"
           inkscape:connector-curvature="0" />
        <path
           d="m 1019.6322,520.93699 c 11.4323,1.1e-4 20.3242,4.94004 26.6756,14.8198 6.3513,9.73881 9.5269,23.14718 9.527,40.22516 -10e-5,17.07808 -4.0226,30.48646 -12.0675,40.22516 -8.0451,9.73872 -17.7838,14.60808 -29.2162,14.60808 -7.3394,0 -14.81983,-1.97597 -22.44139,-5.92792 l 0,33.4504 c -4e-5,5.92788 -1.05859,10.09154 -3.17567,12.49097 -2.11715,2.54049 -5.85738,3.81076 -11.2207,3.8108 l -9.95043,0 -1.48198,-1.48197 0,-149.04481 1.48198,-1.27026 7.40989,0 c 7.3393,10e-5 12.3498,3.45805 15.03151,10.37385 8.18613,-8.18607 17.99539,-12.27915 29.42789,-12.27926 m -7.4099,21.59456 c -7.7628,9e-5 -14.467,3.81089 -20.11259,11.43242 l 0,50.17559 c 6.77472,4.37539 12.91439,6.56307 18.41889,6.56305 5.6456,2e-5 10.0915,-3.03451 13.3378,-9.10359 3.3873,-6.21016 5.081,-14.89032 5.0811,-26.04049 -10e-5,-11.29121 -1.5526,-19.61852 -4.6577,-24.98194 -3.1051,-5.36328 -7.1276,-8.04495 -12.0675,-8.04504"
           style="line-height:125%;letter-spacing:0.29631141;fill:#ffffff;font-family:Signika Negative;-inkscape-font-specification:Signika Negative Semi-Bold"
           id="path3082"
           inkscape:connector-curvature="0" />
        <path
           d="m 1151.4443,533.00454 c 10.0209,10.02109 15.0314,24.48802 15.0315,43.40083 -10e-5,18.91292 -5.0106,33.37985 -15.0315,43.40083 -8.0451,8.04503 -18.7013,12.06755 -31.9684,12.06755 -13.1262,0 -23.7117,-4.02252 -31.7567,-12.06755 -10.0211,-10.02098 -15.0316,-24.48791 -15.0315,-43.40083 -10e-5,-18.91281 5.0104,-33.37974 15.0315,-43.40083 8.045,-8.04493 18.6305,-12.06744 31.7567,-12.06755 13.2671,1.1e-4 23.9233,4.02262 31.9684,12.06755 m -31.9684,7.83332 c -13.2673,9e-5 -19.9009,11.85591 -19.9009,35.56751 0,23.7117 6.6336,35.56753 19.9009,35.56751 13.4083,2e-5 20.1125,-11.85581 20.1125,-35.56751 0,-23.7116 -6.7042,-35.56742 -20.1125,-35.56751"
           style="line-height:125%;letter-spacing:0.29631141;fill:#ffffff;font-family:Signika Negative;-inkscape-font-specification:Signika Negative Semi-Bold"
           id="path3084"
           inkscape:connector-curvature="0" />
        <path
           d="m 1276.5412,557.98648 0,46.99993 c -10e-5,8.60961 1.4113,15.24322 4.2342,19.90086 -4.6578,3.66967 -9.88,5.5045 -15.6667,5.5045 -5.6457,0 -9.5271,-1.34084 -11.6441,-4.02252 -2.1172,-2.68167 -3.1757,-6.84532 -3.1757,-12.49097 l 0,-50.3873 c 0,-6.35127 -0.8469,-10.86778 -2.5405,-13.54953 -1.6938,-2.82274 -4.7283,-4.23414 -9.1036,-4.23423 -8.0451,9e-5 -15.455,3.52861 -22.2297,10.58557 l 0,72.617 c -3.952,0.7057 -8.2568,1.05856 -12.9144,1.05856 -4.6576,0 -9.1036,-0.35286 -13.3378,-1.05856 l 0,-104.79713 1.482,-1.27026 9.7387,0 c 8.045,10e-5 12.8438,4.23433 14.3964,12.70268 10.3032,-9.03292 20.5359,-13.54942 30.6981,-13.54953 10.3032,1.1e-4 17.8543,3.31692 22.6532,9.95043 4.9398,6.63372 7.4098,15.31388 7.4099,26.0405"
           style="line-height:125%;letter-spacing:0.29631141;fill:#ffffff;font-family:Signika Negative;-inkscape-font-specification:Signika Negative Semi-Bold"
           id="path3086"
           inkscape:connector-curvature="0" />
        <path
           d="m 1296.7118,621.28818 c 0.1412,-2.82281 0.988,-5.99847 2.5406,-9.52701 1.5525,-3.66964 3.3873,-6.49246 5.5045,-8.46846 11.2912,6.06908 21.1711,9.10361 29.6396,9.10359 5.081,2e-5 9.0329,-0.98797 11.8558,-2.96396 2.9639,-1.97595 4.4459,-4.58705 4.4459,-7.83332 0,-5.50446 -3.952,-9.73868 -11.8558,-12.70268 l -11.8558,-4.44594 c -17.7838,-6.63357 -26.6757,-16.86627 -26.6757,-30.69814 0,-9.87978 3.5991,-17.78367 10.7973,-23.71168 7.1982,-6.06895 16.7252,-9.10348 28.581,-9.10359 11.997,1.1e-4 23.9234,2.75236 35.7793,8.25675 0.141,3.24633 -0.5647,6.70428 -2.1172,10.37385 -1.4114,3.66975 -3.2463,6.422 -5.5044,8.25675 -10.4445,-4.79871 -19.9715,-7.1981 -28.5811,-7.19819 -3.952,9e-5 -7.1276,0.9175 -9.527,2.75225 -2.2583,1.83491 -3.3874,4.30488 -3.3874,7.4099 0,4.51658 3.7402,8.11567 11.2207,10.79728 l 12.9144,4.86936 c 18.2071,6.77482 27.3107,17.64266 27.3108,32.60355 -10e-5,10.02102 -3.8109,17.99548 -11.4324,23.92338 -7.4806,5.92792 -17.925,8.89188 -31.3333,8.89188 -13.2673,0 -26.0405,-3.52852 -38.3198,-10.58557"
           style="line-height:125%;letter-spacing:0.29631141;fill:#ffffff;font-family:Signika Negative;-inkscape-font-specification:Signika Negative Semi-Bold"
           id="path3088"
           inkscape:connector-curvature="0" />
        <path
           d="m 1484.0452,617.05395 c -0.7058,2.39941 -1.976,4.93994 -3.8108,7.62161 -1.6938,2.54054 -3.458,4.51651 -5.2928,5.92792 -8.7508,-0.98799 -15.1727,-5.08107 -19.2657,-12.27926 -9.3153,9.03302 -19.4069,13.54953 -30.2747,13.54953 -10.8679,0 -19.0541,-3.17567 -24.5585,-9.52701 -5.5045,-6.35133 -8.2568,-13.69065 -8.2568,-22.01798 0,-11.8558 3.8108,-20.74767 11.4324,-26.67564 7.7628,-6.06899 17.6426,-9.10352 29.6396,-9.10358 6.4925,6e-5 12.6321,0.28234 18.4189,0.84684 l 0,-6.35134 c 0,-11.15005 -5.3634,-16.72511 -16.09,-16.7252 -7.6217,9e-5 -18.419,2.54062 -32.3919,7.62161 -4.0931,-4.37528 -6.4219,-10.65605 -6.9865,-18.84231 15.2432,-6.35124 30.4864,-9.5269 45.7297,-9.52701 10.5855,1.1e-4 19.1951,2.96406 25.8288,8.89188 6.6335,5.92801 9.9503,14.89044 9.9504,26.88734 l 0,43.18912 c -10e-5,7.76277 1.9759,13.26726 5.9279,16.51348 m -53.1395,-5.29278 c 7.3393,2e-5 14.3963,-3.38736 21.1711,-10.16215 l 0,-18.84231 c -4.94,-0.56451 -10.3033,-0.8468 -16.09,-0.84684 -5.7869,4e-5 -10.1622,1.48202 -13.1261,4.44594 -2.964,2.96399 -4.446,6.70422 -4.446,11.2207 0,4.51653 1.1291,8.04505 3.3874,10.58557 2.2582,2.39941 5.2927,3.59911 9.1036,3.59909"
           style="line-height:125%;letter-spacing:0.29631141;fill:#ffffff;font-family:Signika Negative;-inkscape-font-specification:Signika Negative Semi-Bold"
           id="path3090"
           inkscape:connector-curvature="0" />
        <path
           d="m 1507.1567,627.63952 c -1.4114,-2.82281 -2.1171,-6.56304 -2.1171,-11.2207 0,-4.79877 0.7057,-8.68015 2.1171,-11.64413 3.8108,-2.11708 8.6802,-3.17564 14.6081,-3.17567 5.9279,3e-5 10.6561,1.05859 14.1847,3.17567 1.4114,2.96398 2.1171,6.84536 2.1171,11.64413 0,4.65766 -0.7057,8.39789 -2.1171,11.2207 -3.1051,2.11711 -7.8334,3.17567 -14.1847,3.17567 -6.3513,0 -11.2207,-1.05856 -14.6081,-3.17567"
           style="line-height:125%;letter-spacing:0.29631141;fill:#ffffff;font-family:Signika Negative;-inkscape-font-specification:Signika Negative Semi-Bold"
           id="path3092"
           inkscape:connector-curvature="0" />
        <path
           d="m 1644.9563,584.87383 -59.2792,0 c 0.4234,8.32735 2.2582,14.81982 5.5045,19.47744 3.3873,4.51653 9.2447,6.77478 17.572,6.77477 8.3273,10e-6 17.572,-2.46995 27.7342,-7.4099 3.9519,3.81082 6.4924,9.17417 7.6216,16.09006 -11.2913,8.04503 -24.9114,12.06755 -40.8603,12.06755 -15.8078,0 -27.1696,-5.15164 -34.0855,-15.45493 -6.9159,-10.30326 -10.3738,-23.64107 -10.3738,-40.01345 0,-16.37228 3.8108,-29.71008 11.4324,-40.01345 7.6216,-10.30318 18.4894,-15.45482 32.6035,-15.45493 14.2552,1.1e-4 25.1936,4.30491 32.8153,12.9144 7.6215,8.46854 11.4323,19.19524 11.4324,32.18012 -10e-5,6.49254 -0.7058,12.77331 -2.1171,18.84232 m -40.8603,-44.88281 c -11.5736,9e-5 -17.7838,8.75081 -18.6306,26.25221 l 36.8378,0 0,-2.54054 c -10e-5,-7.05697 -1.4821,-12.77317 -4.446,-17.14862 -2.964,-4.37528 -7.5511,-6.56296 -13.7612,-6.56305"
           style="line-height:125%;letter-spacing:0.29631141;fill:#ffffff;font-family:Signika Negative;-inkscape-font-specification:Signika Negative Semi-Bold"
           id="path3094"
           inkscape:connector-curvature="0" />
        <path
           d="m 1670.4562,595.03597 0,-47.21163 c 0,-8.46837 -1.3408,-15.03141 -4.0225,-19.68916 4.2342,-3.8107 9.2447,-5.7161 15.0315,-5.71621 5.9279,1.1e-4 9.9504,1.34095 12.0675,4.02252 2.1171,2.68178 3.1757,6.84543 3.1757,12.49097 l 0,50.3873 c 0,6.49252 0.8468,11.15017 2.5406,13.97295 1.6936,2.68171 4.7281,4.02254 9.1035,4.02252 8.045,2e-5 15.4549,-3.5285 22.2297,-10.58557 l 0,-72.82871 c 3.9519,-0.7056 8.3273,-1.05845 13.1261,-1.05855 4.7987,10e-5 9.1741,0.35295 13.1261,1.05855 l 0,75.15754 c -10e-5,9.03304 1.9759,15.10209 5.928,18.20717 -1.2704,5.50451 -4.2344,9.95044 -8.8919,13.33782 -10.0211,-1.27027 -16.8664,-6.28076 -20.536,-15.03151 -10.8679,10.16215 -22.2298,15.24322 -34.0855,15.24322 -9.4565,0 -16.6547,-3.24624 -21.5946,-9.73872 -4.7988,-6.63361 -7.1982,-15.31377 -7.1982,-26.0405"
           style="line-height:125%;letter-spacing:0.29631141;fill:#ffffff;font-family:Signika Negative;-inkscape-font-specification:Signika Negative Semi-Bold"
           id="path3096"
           inkscape:connector-curvature="0" />
      </g>
      <g
         transform="matrix(1.0476191,0,0,1.0476191,-356.04604,209.42878)"
         style="font-size:40px;font-style:normal;font-weight:normal;line-height:125%;letter-spacing:0px;word-spacing:0px;fill:#000000;fill-opacity:1;stroke:none;font-family:Sans"
         id="text3051" />
      <text
         xml:space="preserve"
         style="font-size:93.71585083px;font-style:normal;font-variant:normal;font-weight:600;font-stretch:normal;text-align:start;line-height:125%;letter-spacing:0px;word-spacing:0px;writing-mode:lr-tb;text-anchor:start;fill:#ececec;fill-opacity:1;stroke:none;font-family:Signika;-inkscape-font-specification:Signika Semi-Bold"
         x="1188.9154"
         y="764.36176"
         id="text3009"
         sodipodi:linespacing="125%"><tspan
           sodipodi:role="line"
           id="tspan3011"
           x="1188.9154"
           y="764.36176">about the law</tspan></text>
    </g>
  </g>
</svg>
